<mxfile host="app.diagrams.net" agent="Mozilla/5.0 (Windows NT 10.0; Win64; x64) AppleWebKit/537.36 (KHTML, like Gecko) Chrome/131.0.0.0 Safari/537.36" version="25.0.3">
  <diagram name="Página-1" id="tFekeHLov5DRJl7ftoND">
    <mxGraphModel dx="880" dy="468" grid="1" gridSize="10" guides="1" tooltips="1" connect="1" arrows="1" fold="1" page="1" pageScale="1" pageWidth="827" pageHeight="1169" math="0" shadow="0">
      <root>
        <mxCell id="0" />
        <mxCell id="1" parent="0" />
        <mxCell id="DaTnwPpHQ3WnrtstB6hO-2" value="" style="rounded=0;whiteSpace=wrap;html=1;fillColor=none;strokeWidth=2;" parent="1" vertex="1">
          <mxGeometry x="110" y="180" width="500" height="120" as="geometry" />
        </mxCell>
        <mxCell id="dWUnUi8NXXcbww_E4uHS-4" style="edgeStyle=orthogonalEdgeStyle;rounded=0;orthogonalLoop=1;jettySize=auto;html=1;entryX=0;entryY=0.5;entryDx=0;entryDy=0;" parent="1" source="dWUnUi8NXXcbww_E4uHS-1" target="dWUnUi8NXXcbww_E4uHS-2" edge="1">
          <mxGeometry relative="1" as="geometry" />
        </mxCell>
        <mxCell id="dWUnUi8NXXcbww_E4uHS-1" value="Usuário" style="shape=umlActor;verticalLabelPosition=bottom;verticalAlign=top;html=1;outlineConnect=0;" parent="1" vertex="1">
          <mxGeometry x="60" y="210" width="30" height="60" as="geometry" />
        </mxCell>
        <mxCell id="dWUnUi8NXXcbww_E4uHS-2" value="Gerenciar idioma" style="ellipse;whiteSpace=wrap;html=1;" parent="1" vertex="1">
          <mxGeometry x="140" y="210" width="90" height="60" as="geometry" />
        </mxCell>
        <mxCell id="dWUnUi8NXXcbww_E4uHS-5" style="edgeStyle=orthogonalEdgeStyle;rounded=0;orthogonalLoop=1;jettySize=auto;html=1;exitX=0;exitY=0.5;exitDx=0;exitDy=0;entryX=1;entryY=0.5;entryDx=0;entryDy=0;" parent="1" source="dWUnUi8NXXcbww_E4uHS-3" target="dWUnUi8NXXcbww_E4uHS-2" edge="1">
          <mxGeometry relative="1" as="geometry" />
        </mxCell>
        <mxCell id="dWUnUi8NXXcbww_E4uHS-8" value="&amp;lt;&amp;lt;extend&amp;gt;&amp;gt;" style="edgeLabel;html=1;align=center;verticalAlign=middle;resizable=0;points=[];" parent="dWUnUi8NXXcbww_E4uHS-5" vertex="1" connectable="0">
          <mxGeometry relative="1" as="geometry">
            <mxPoint as="offset" />
          </mxGeometry>
        </mxCell>
        <mxCell id="dWUnUi8NXXcbww_E4uHS-7" style="edgeStyle=orthogonalEdgeStyle;rounded=0;orthogonalLoop=1;jettySize=auto;html=1;exitX=1;exitY=0.5;exitDx=0;exitDy=0;" parent="1" source="dWUnUi8NXXcbww_E4uHS-3" target="dWUnUi8NXXcbww_E4uHS-6" edge="1">
          <mxGeometry relative="1" as="geometry" />
        </mxCell>
        <mxCell id="dWUnUi8NXXcbww_E4uHS-9" value="&amp;lt;&amp;lt;include&amp;gt;&amp;gt;" style="edgeLabel;html=1;align=center;verticalAlign=middle;resizable=0;points=[];" parent="dWUnUi8NXXcbww_E4uHS-7" vertex="1" connectable="0">
          <mxGeometry relative="1" as="geometry">
            <mxPoint as="offset" />
          </mxGeometry>
        </mxCell>
        <mxCell id="dWUnUi8NXXcbww_E4uHS-3" value="Escolher idioma" style="ellipse;whiteSpace=wrap;html=1;" parent="1" vertex="1">
          <mxGeometry x="323.5" y="210" width="90" height="60" as="geometry" />
        </mxCell>
        <mxCell id="dWUnUi8NXXcbww_E4uHS-6" value="Atualizar idioma" style="ellipse;whiteSpace=wrap;html=1;" parent="1" vertex="1">
          <mxGeometry x="500" y="210" width="90" height="60" as="geometry" />
        </mxCell>
        <mxCell id="DaTnwPpHQ3WnrtstB6hO-1" value="Gerenciar idioma" style="text;html=1;align=center;verticalAlign=middle;whiteSpace=wrap;rounded=0;strokeWidth=1;fontSize=14;" parent="1" vertex="1">
          <mxGeometry x="110" y="150" width="110" height="30" as="geometry" />
        </mxCell>
      </root>
    </mxGraphModel>
  </diagram>
</mxfile>
